<svg width="53" height="53" viewBox="0 0 53 53" fill="none" xmlns="http://www.w3.org/2000/svg">
<g clip-path="url(#clip0_6_33)">
<mask id="mask0_6_33" style="mask-type:alpha" maskUnits="userSpaceOnUse" x="0" y="0" width="53" height="53">
<path d="M0 0H53V53H0V0Z" fill="white"/>
</mask>
<g mask="url(#mask0_6_33)">
<mask id="mask1_6_33" style="mask-type:alpha" maskUnits="userSpaceOnUse" x="0" y="0" width="53" height="53">
<path d="M0 0H53V53H0V0Z" fill="white"/>
</mask>
<g mask="url(#mask1_6_33)">
<path d="M0 26.5C0 37.8133 7.09096 47.4725 17.0704 51.2731C16.8275 49.2039 16.5691 45.792 17.1256 43.3982C17.6048 41.34 20.2195 30.2851 20.2195 30.2851C20.2195 30.2851 19.4311 28.7061 19.4311 26.3675C19.4311 22.7017 21.5555 19.9633 24.2033 19.9633C26.4558 19.9633 27.5423 21.6527 27.5423 23.6777C27.5423 25.9413 26.1003 29.3245 25.3561 32.4625C24.7355 35.0882 26.6745 37.2303 29.2626 37.2303C33.9509 37.2303 37.5571 32.2858 37.5571 25.1485C37.5571 18.8305 33.0168 14.416 26.5353 14.416C19.0314 14.416 14.6258 20.045 14.6258 25.864C14.6258 28.132 15.4981 30.5611 16.589 31.8839C16.682 31.9838 16.7477 32.106 16.7798 32.2386C16.8119 32.3713 16.8093 32.51 16.7723 32.6414C16.5713 33.4761 16.1252 35.2671 16.0391 35.6337C15.9221 36.1151 15.6571 36.2189 15.1558 35.9848C11.861 34.4522 9.80279 29.6358 9.80279 25.7668C9.80279 17.4436 15.847 9.80279 27.231 9.80279C36.3823 9.80279 43.4953 16.324 43.4953 25.0381C43.4953 34.1298 37.7647 41.4482 29.8059 41.4482C27.1316 41.4482 24.6207 40.057 23.7595 38.4162C23.7595 38.4162 22.4367 43.4556 22.1165 44.6878C21.4937 47.0817 19.7668 50.1115 18.6957 51.8318C21.1647 52.5915 23.7837 53 26.5 53C41.1346 53 53 41.1346 53 26.5C53 11.8654 41.1346 0 26.5 0C11.8654 0 0 11.8654 0 26.5Z" fill="black"/>
</g>
</g>
</g>
<defs>
<clipPath id="clip0_6_33">
<rect width="53" height="53" fill="white"/>
</clipPath>
</defs>
</svg>
