<svg width="53" height="53" viewBox="0 0 53 53" fill="none" xmlns="http://www.w3.org/2000/svg">
<path d="M26.5 3.3125C13.6951 3.3125 3.3125 13.6951 3.3125 26.5C3.3125 39.3049 13.6951 49.6875 26.5 49.6875C39.3049 49.6875 49.6875 39.3049 49.6875 26.5C49.6875 13.6951 39.3049 3.3125 26.5 3.3125ZM37.6435 20.7911C37.659 21.0344 37.659 21.288 37.659 21.5364C37.659 29.1345 31.8725 37.8867 21.2983 37.8867C18.0376 37.8867 15.0149 36.9396 12.4685 35.3092C12.9343 35.3609 13.3794 35.3816 13.8556 35.3816C16.547 35.3816 19.021 34.4707 20.993 32.9283C18.4672 32.8766 16.3451 31.2203 15.6205 28.943C16.5056 29.0724 17.3026 29.0724 18.2136 28.8395C16.913 28.5752 15.7441 27.8689 14.9053 26.8405C14.0665 25.8121 13.6096 24.525 13.6123 23.1979V23.1254C14.3731 23.555 15.2686 23.8189 16.2054 23.8552C15.4178 23.3303 14.772 22.6193 14.3251 21.785C13.8782 20.9508 13.644 20.0192 13.6434 19.0728C13.6434 18.0014 13.9229 17.0231 14.4249 16.1743C15.8684 17.9514 17.6698 19.4047 19.7118 20.44C21.7538 21.4753 23.9908 22.0693 26.2774 22.1834C25.4648 18.2757 28.384 15.1133 31.8932 15.1133C33.5494 15.1133 35.04 15.8068 36.0907 16.9248C37.3898 16.6815 38.632 16.195 39.7396 15.5429C39.3101 16.873 38.4095 17.9962 37.2139 18.7053C38.3732 18.5811 39.4912 18.2602 40.5264 17.8099C39.7448 18.9589 38.7666 19.9785 37.6435 20.7911V20.7911Z" fill="black"/>
</svg>
