<svg width="63" height="63" viewBox="0 0 63 63" fill="none" xmlns="http://www.w3.org/2000/svg">
<path d="M31.5 3.9375C16.2791 3.9375 3.9375 16.2791 3.9375 31.5C3.9375 46.7209 16.2791 59.0625 31.5 59.0625C46.7209 59.0625 59.0625 46.7209 59.0625 31.5C59.0625 16.2791 46.7209 3.9375 31.5 3.9375ZM44.746 24.714C44.7645 25.0031 44.7645 25.3046 44.7645 25.5999C44.7645 34.6315 37.8861 45.0352 25.3169 45.0352C21.4409 45.0352 17.8479 43.9093 14.821 41.9713C15.3747 42.0328 15.9038 42.0574 16.4698 42.0574C19.669 42.0574 22.6099 40.9746 24.9539 39.1412C21.9516 39.0797 19.4291 37.1109 18.5678 34.4039C19.6198 34.5577 20.5673 34.5577 21.6501 34.2809C20.1042 33.9668 18.7147 33.1272 17.7176 31.9047C16.7206 30.6823 16.1775 29.1523 16.1807 27.5748V27.4887C17.0851 27.9993 18.1494 28.3131 19.263 28.3562C18.3269 27.7323 17.5591 26.887 17.0279 25.8954C16.4967 24.9038 16.2183 23.7964 16.2176 22.6714C16.2176 21.3979 16.5498 20.2351 17.1466 19.2261C18.8625 21.3384 21.0037 23.066 23.431 24.2966C25.8583 25.5272 28.5174 26.2333 31.2354 26.3689C30.2695 21.7239 33.7395 17.9648 37.9107 17.9648C39.8795 17.9648 41.6514 18.7893 42.9003 20.1182C44.4445 19.829 45.9211 19.2507 47.2377 18.4755C46.7271 20.0566 45.6565 21.3917 44.2354 22.2346C45.6135 22.0869 46.9424 21.7055 48.1729 21.1702C47.2438 22.536 46.0811 23.748 44.746 24.714V24.714Z" fill="black"/>
</svg>
